# xmcd CD database file
#
# Track frame offsets:
#	150
#	17708
#	44511
#	70676
#	89342
#	95439
#	104981
#	163545
#
# Disc length: 2468 seconds
#
# Revision: 0
# Processed by: cddbd v1.5.2PL0 Copyright (c) Steve Scherf et al.
# Submitted via: CDex 1.51
#
DISCID=6609a208
DTITLE=The Buddy Rich Band - Very Alive At Ronnie Scott´s Disc 2
DYEAR=1972
DGENRE=Jazz
TTITLE0=Superstar
TTITLE1=Love Story
TTITLE2=In A Mellow Tone
TTITLE3=Two Bass Hit
TTITLE4=Buddy Rich Introduces
TTITLE5=That´s Enough
TTITLE6=Time Being
TTITLE7=Buddy Rich Again
EXTD=YEAR: 1972
EXTT0=
EXTT1=
EXTT2=
EXTT3=
EXTT4=
EXTT5=
EXTT6=
EXTT7=
PLAYORDER=
